<svg width="448" height="449" viewBox="0 0 448 449" fill="none" xmlns="http://www.w3.org/2000/svg">
<path d="M223.994 0.820862C100.294 0.820862 -0.00626755 103.721 -0.00626755 230.521C-0.00626755 332.021 64.1937 418.021 153.194 448.421C154.442 448.692 155.716 448.826 156.994 448.821C165.294 448.821 168.494 442.721 168.494 437.421C168.494 431.921 168.294 417.521 168.194 398.321C160.784 400.058 153.204 400.963 145.594 401.021C102.494 401.021 92.6937 367.521 92.6937 367.521C82.4937 341.021 67.7937 333.921 67.7937 333.921C48.2937 320.221 67.6937 319.821 69.1937 319.821H69.2937C91.7937 321.821 103.594 343.621 103.594 343.621C114.794 363.221 129.794 368.721 143.194 368.721C152.054 368.544 160.777 366.499 168.794 362.721C170.794 347.921 176.594 337.821 182.994 332.021C133.294 326.221 80.9937 306.521 80.9937 218.521C80.9937 193.421 89.6937 172.921 103.994 156.921C101.694 151.121 93.9937 127.721 106.194 96.1209C107.83 95.7293 109.512 95.5611 111.194 95.6209C119.294 95.6209 137.594 98.7209 167.794 119.721C204.489 109.454 243.298 109.454 279.994 119.721C310.194 98.7209 328.494 95.6209 336.594 95.6209C338.275 95.5611 339.957 95.7293 341.594 96.1209C353.794 127.721 346.094 151.121 343.794 156.921C358.094 173.021 366.794 193.521 366.794 218.521C366.794 306.721 314.394 326.121 264.494 331.821C272.494 338.921 279.694 352.921 279.694 374.321C279.694 405.021 279.394 429.821 279.394 437.321C279.394 442.721 282.494 448.821 290.794 448.821C292.137 448.827 293.478 448.693 294.794 448.421C383.894 418.021 447.994 331.921 447.994 230.521C447.994 103.721 347.694 0.820862 223.994 0.820862Z" fill="black"/>
</svg>
