<svg width="1740" height="2177" viewBox="0 0 1740 2177" fill="none" xmlns="http://www.w3.org/2000/svg">
<path fill-rule="evenodd" clip-rule="evenodd" d="M1267.78 2160.72C1552.62 2187.5 1740 2205.12 1740 2011.68C1740 1972.94 1735.62 1937.77 1727.74 1905.12C1067.48 1949.28 693.287 1950.42 17.7864 1905.12C6.5192 1942.57 -3.33183e-05 1978.52 1.27784e-10 2011.68C0.000169911 2180.74 205.37 2168.66 511.409 2150.65C620.397 2144.24 742.154 2137.08 871.948 2137.08C1016.26 2137.08 1150.31 2149.68 1267.78 2160.72ZM62.0025 1793.87C73.3178 1770.29 85.7379 1746.63 98.8749 1723.18C696.878 1763.7 1034.47 1762.26 1640.09 1723.18C1656.26 1746.29 1671.18 1769.63 1684.3 1793.87C1047 1845.22 691.676 1846.87 62.0025 1793.87ZM1577.01 1639.11C1015.69 1676.04 702.921 1677.47 149.218 1639.11C165.957 1612.73 183.032 1587.1 199.823 1562.69C718.717 1608.37 1007.22 1605.78 1518.48 1562.69C1536.61 1587.22 1554.77 1610.54 1572.46 1633.26L1577.01 1639.11ZM249.83 1491.99C722.179 1536.09 989.299 1534.67 1469.27 1491.99C1455.94 1471.43 1442.88 1449.86 1430.32 1427.03C984.217 1457.66 736.121 1458.36 297.638 1427.03C283.427 1446.17 267.203 1468.03 249.83 1491.99ZM1394.29 1354.43C1399.52 1366.21 1404.89 1377.66 1410.39 1388.82C986.865 1408.7 749.412 1411.2 325.886 1388.82C336.907 1373.72 345.103 1362.02 349.528 1354.43C757.533 1377.32 986.287 1374.26 1394.29 1354.43ZM557.014 985.687L541.5 973C544.328 967.202 552.711 953.137 555.5 947.475L589.542 920.726L624.566 947.475L662.766 920.726L700.966 947.475L733.436 920.726L769.726 947.475L807.925 920.726L848.035 947.475L884.325 920.726L918.705 947.475L945.445 923.076L972.184 947.475L1006.56 920.726L1037.12 947.475L1060.04 920.726L1086.78 947.475L1109.7 920.726L1136.44 947.475L1155.54 923.076C1161.24 934.996 1163.16 940.012 1168.91 951.735L1183.05 980.394L1176.55 985.687L1155.54 964.67L1136.44 985.687L1109.7 964.67L1086.78 985.687L1060.04 964.67L1037.12 985.687L1006.56 964.67L972.184 985.687L945.445 964.67L918.705 985.687L884.325 964.67L848.035 985.687L807.925 964.67L769.726 985.687L733.436 964.67L700.966 985.687L662.766 964.67L624.566 985.687L589.542 964.67L557.014 985.687ZM589.542 874.662C801.768 896.646 920.752 894.935 1132.98 874.662C1122.61 851.384 1114.75 832.081 1109.7 817.554C1059.6 673.238 723.886 693.366 653.495 772.702C635.447 793.044 613.703 829.138 589.542 874.662ZM733.436 1274.19L807.925 1105.2H912L1006.56 1274.19H733.436ZM1221.51 1094.59L987.5 1105.2L1060.04 1239.8L1221.51 1094.59Z" fill="url(#paint0_linear_12_80)" fill-opacity="0.7"/>
<path d="M675.5 1239.8L733.436 1105.2C682.604 1102.49 576.044 1100.92 513 1097.51L675.5 1239.8Z" fill="url(#paint1_linear_12_80)" fill-opacity="0.7"/>
<path d="M393.46 1274.19L507.5 1280L429.5 1213.05C420.394 1231.31 402.482 1256.85 393.46 1274.19Z" fill="url(#paint2_linear_12_80)" fill-opacity="0.7"/>
<path d="M1260 1126L1109.7 1274.19H1167.25L1285.96 1171.01C1280.87 1162.02 1264.92 1134.83 1260 1126Z" fill="url(#paint3_linear_12_80)" fill-opacity="0.7"/>
<path d="M1309.94 1213.05L1236.38 1274.19H1344.63C1332.7 1254.21 1321.58 1233.23 1309.94 1213.05Z" fill="url(#paint4_linear_12_80)" fill-opacity="0.7"/>
<path d="M653.495 1280L469.521 1126C462.16 1142.89 454.732 1159.78 446.777 1177L576 1280H653.495Z" fill="url(#paint5_linear_12_80)" fill-opacity="0.7"/>
<path d="M1210.98 1033.45C941.488 1052.59 788.078 1051.91 510.966 1033.45C508.63 1038.34 506.351 1043.19 504.117 1048C791.552 1068.2 946.938 1065.7 1218.56 1048C1216.19 1043.42 1213.68 1038.61 1210.98 1033.45Z" fill="url(#paint6_linear_12_80)" fill-opacity="0.7"/>
<path d="M368.973 1320.04C769.382 1334.77 988.243 1332.91 1373.28 1320.04C1370.81 1316.01 1368.3 1312 1365.77 1308C977.916 1323.04 761.15 1322.39 375.537 1308C373.343 1312.06 371.155 1316.07 368.973 1320.04Z" fill="url(#paint7_linear_12_80)" fill-opacity="0.7"/>
<path fill-rule="evenodd" clip-rule="evenodd" d="M1211.77 343.975C1236.97 363.266 1270 406.039 1300.96 455.659L1296.99 465.272L1270.07 434.51L1252.77 463.35L1223.93 434.51L1211.86 465.273L1183.56 434.51L1162.9 465.272L1141.26 434.51L1122.03 465.272L1095.12 434.51L1077.81 465.272L1052.82 434.51L1027.82 465.272L997.062 434.51L975.913 465.272L948.997 434.51L927.848 465.272L897.086 436.897L875.937 465.272L849.021 436.897L825.95 465.272L799.033 436.897L774.039 465.272L749.045 436.897L725.974 465.272L697.135 436.897L675.986 465.272L650.992 436.897L625.998 465.272L601.004 436.897L576.807 465.272L551.016 436.897L525.073 465.272L493.338 436.897L468.344 465.272L447.195 436.897C472.93 400.137 498.727 367.032 517.865 343.975C750.81 308.903 980.658 308.477 1211.77 343.975ZM1296.99 497.957L1310.36 471.04C1350.4 537.936 1385.11 613.749 1391.91 660.589C992.594 563.955 765.216 551.684 348.761 660.589C338.881 618.095 371.742 551.11 417.881 480.5L424.073 497.957L447.195 465.272L468.344 497.957L493.338 465.272L525.073 497.957L551.016 465.272L576.807 497.957L601.004 465.272L627.92 497.957L650.992 465.272L677.908 497.957L697.135 465.272L725.974 497.957L749.045 465.272L774.039 497.957L799.033 465.272L827.872 497.957L849.021 465.272L875.937 497.957L897.086 465.272L927.848 497.957L948.997 465.272L975.913 497.957L997.062 465.272L1029.75 497.957L1052.82 465.272L1077.81 497.957L1095.12 465.272L1122.03 497.957L1141.26 465.272L1162.9 497.957L1183.56 465.272L1211.86 497.957L1229.7 465.273L1252.77 497.957L1270.07 465.272L1296.99 497.957ZM370.29 681.13C534.473 695.372 655.554 681.197 748.071 670.366C793.228 665.079 831.581 660.589 864.818 660.589C910.749 660.589 988.655 671.949 1070.77 683.923C1198.99 702.62 1337.47 722.813 1380.49 703.586C1386.46 700.914 1390.17 695.476 1391.91 687.814C982.963 600.677 758.889 595.954 370.29 681.13ZM1211.86 315.308C1211.91 298.434 1211.89 280.968 1211.41 263.398C980.073 222.874 751.574 221.565 518.101 258.591C517.551 277.239 517.629 296.243 517.742 315.308C751.873 272.818 979.543 272.437 1211.86 315.308ZM525.073 186.493C532.569 147.277 547.463 111.959 576.807 84.0394C639.147 24.7265 771.593 0 864.818 0C968.837 0 1099.31 12.1571 1162.9 84.0394C1186.26 110.444 1198.54 146.745 1204.96 186.493C981.159 150.74 756.172 150.171 525.073 186.493Z" fill="url(#paint8_linear_12_80)" fill-opacity="0.7"/>
<defs>
<linearGradient id="paint0_linear_12_80" x1="870" y1="0" x2="870" y2="2177" gradientUnits="userSpaceOnUse">
<stop offset="0.1249" stop-color="#3807FA"/>
<stop offset="0.125" stop-color="#ECE7E7"/>
<stop offset="0.1251" stop-color="#FF00A8"/>
<stop offset="0.285" stop-color="#F71313"/>
<stop offset="0.425" stop-color="#F24900"/>
<stop offset="0.515" stop-color="#FAF007"/>
<stop offset="0.56" stop-color="#07FA11"/>
<stop offset="0.5601" stop-color="#FF238D"/>
<stop offset="0.7649" stop-color="#3807FA"/>
<stop offset="0.765" stop-color="#2339FF"/>
<stop offset="0.84" stop-color="#F40000"/>
</linearGradient>
<linearGradient id="paint1_linear_12_80" x1="870" y1="0" x2="870" y2="2177" gradientUnits="userSpaceOnUse">
<stop offset="0.1249" stop-color="#3807FA"/>
<stop offset="0.125" stop-color="#ECE7E7"/>
<stop offset="0.1251" stop-color="#FF00A8"/>
<stop offset="0.285" stop-color="#F71313"/>
<stop offset="0.425" stop-color="#F24900"/>
<stop offset="0.515" stop-color="#FAF007"/>
<stop offset="0.56" stop-color="#07FA11"/>
<stop offset="0.5601" stop-color="#FF238D"/>
<stop offset="0.7649" stop-color="#3807FA"/>
<stop offset="0.765" stop-color="#2339FF"/>
<stop offset="0.84" stop-color="#F40000"/>
</linearGradient>
<linearGradient id="paint2_linear_12_80" x1="870" y1="0" x2="870" y2="2177" gradientUnits="userSpaceOnUse">
<stop offset="0.1249" stop-color="#3807FA"/>
<stop offset="0.125" stop-color="#ECE7E7"/>
<stop offset="0.1251" stop-color="#FF00A8"/>
<stop offset="0.285" stop-color="#F71313"/>
<stop offset="0.425" stop-color="#F24900"/>
<stop offset="0.515" stop-color="#FAF007"/>
<stop offset="0.56" stop-color="#07FA11"/>
<stop offset="0.5601" stop-color="#FF238D"/>
<stop offset="0.7649" stop-color="#3807FA"/>
<stop offset="0.765" stop-color="#2339FF"/>
<stop offset="0.84" stop-color="#F40000"/>
</linearGradient>
<linearGradient id="paint3_linear_12_80" x1="870" y1="0" x2="870" y2="2177" gradientUnits="userSpaceOnUse">
<stop offset="0.1249" stop-color="#3807FA"/>
<stop offset="0.125" stop-color="#ECE7E7"/>
<stop offset="0.1251" stop-color="#FF00A8"/>
<stop offset="0.285" stop-color="#F71313"/>
<stop offset="0.425" stop-color="#F24900"/>
<stop offset="0.515" stop-color="#FAF007"/>
<stop offset="0.56" stop-color="#07FA11"/>
<stop offset="0.5601" stop-color="#FF238D"/>
<stop offset="0.7649" stop-color="#3807FA"/>
<stop offset="0.765" stop-color="#2339FF"/>
<stop offset="0.84" stop-color="#F40000"/>
</linearGradient>
<linearGradient id="paint4_linear_12_80" x1="870" y1="0" x2="870" y2="2177" gradientUnits="userSpaceOnUse">
<stop offset="0.1249" stop-color="#3807FA"/>
<stop offset="0.125" stop-color="#ECE7E7"/>
<stop offset="0.1251" stop-color="#FF00A8"/>
<stop offset="0.285" stop-color="#F71313"/>
<stop offset="0.425" stop-color="#F24900"/>
<stop offset="0.515" stop-color="#FAF007"/>
<stop offset="0.56" stop-color="#07FA11"/>
<stop offset="0.5601" stop-color="#FF238D"/>
<stop offset="0.7649" stop-color="#3807FA"/>
<stop offset="0.765" stop-color="#2339FF"/>
<stop offset="0.84" stop-color="#F40000"/>
</linearGradient>
<linearGradient id="paint5_linear_12_80" x1="870" y1="0" x2="870" y2="2177" gradientUnits="userSpaceOnUse">
<stop offset="0.1249" stop-color="#3807FA"/>
<stop offset="0.125" stop-color="#ECE7E7"/>
<stop offset="0.1251" stop-color="#FF00A8"/>
<stop offset="0.285" stop-color="#F71313"/>
<stop offset="0.425" stop-color="#F24900"/>
<stop offset="0.515" stop-color="#FAF007"/>
<stop offset="0.56" stop-color="#07FA11"/>
<stop offset="0.5601" stop-color="#FF238D"/>
<stop offset="0.7649" stop-color="#3807FA"/>
<stop offset="0.765" stop-color="#2339FF"/>
<stop offset="0.84" stop-color="#F40000"/>
</linearGradient>
<linearGradient id="paint6_linear_12_80" x1="870" y1="0" x2="870" y2="2177" gradientUnits="userSpaceOnUse">
<stop offset="0.1249" stop-color="#3807FA"/>
<stop offset="0.125" stop-color="#ECE7E7"/>
<stop offset="0.1251" stop-color="#FF00A8"/>
<stop offset="0.285" stop-color="#F71313"/>
<stop offset="0.425" stop-color="#F24900"/>
<stop offset="0.515" stop-color="#FAF007"/>
<stop offset="0.56" stop-color="#07FA11"/>
<stop offset="0.5601" stop-color="#FF238D"/>
<stop offset="0.7649" stop-color="#3807FA"/>
<stop offset="0.765" stop-color="#2339FF"/>
<stop offset="0.84" stop-color="#F40000"/>
</linearGradient>
<linearGradient id="paint7_linear_12_80" x1="870" y1="0" x2="870" y2="2177" gradientUnits="userSpaceOnUse">
<stop offset="0.1249" stop-color="#3807FA"/>
<stop offset="0.125" stop-color="#ECE7E7"/>
<stop offset="0.1251" stop-color="#FF00A8"/>
<stop offset="0.285" stop-color="#F71313"/>
<stop offset="0.425" stop-color="#F24900"/>
<stop offset="0.515" stop-color="#FAF007"/>
<stop offset="0.56" stop-color="#07FA11"/>
<stop offset="0.5601" stop-color="#FF238D"/>
<stop offset="0.7649" stop-color="#3807FA"/>
<stop offset="0.765" stop-color="#2339FF"/>
<stop offset="0.84" stop-color="#F40000"/>
</linearGradient>
<linearGradient id="paint8_linear_12_80" x1="870.06" y1="0" x2="870.06" y2="711.367" gradientUnits="userSpaceOnUse">
<stop offset="0.145" stop-color="#1A06FE"/>
<stop offset="0.18" stop-color="#FF0000"/>
<stop offset="0.1801" stop-color="white"/>
<stop offset="0.1802" stop-color="#FF00D6"/>
<stop offset="0.295" stop-color="#FCFCFC"/>
<stop offset="0.355" stop-color="#00FFC2"/>
<stop offset="0.515" stop-color="#F0FBF8"/>
<stop offset="0.565" stop-color="#FF0AC9"/>
<stop offset="0.595" stop-color="#FF000F"/>
<stop offset="0.675" stop-color="#FFF4F5"/>
<stop offset="0.85" stop-color="#FF077E"/>
<stop offset="0.915" stop-color="#FF0000"/>
</linearGradient>
</defs>
</svg>
